<?xml version="1.0" encoding="utf-8" standalone="no"?>
<!DOCTYPE svg PUBLIC "-//W3C//DTD SVG 1.1//EN"
  "http://www.w3.org/Graphics/SVG/1.1/DTD/svg11.dtd">
<svg xmlns:xlink="http://www.w3.org/1999/xlink" width="477.533125pt" height="273.499652pt" viewBox="0 0 477.533125 273.499652" xmlns="http://www.w3.org/2000/svg" version="1.1">
 <metadata>
  <rdf:RDF xmlns:dc="http://purl.org/dc/elements/1.1/" xmlns:cc="http://creativecommons.org/ns#" xmlns:rdf="http://www.w3.org/1999/02/22-rdf-syntax-ns#">
   <cc:Work>
    <dc:type rdf:resource="http://purl.org/dc/dcmitype/StillImage"/>
    <dc:date>2025-02-10T20:19:28.752889</dc:date>
    <dc:format>image/svg+xml</dc:format>
    <dc:creator>
     <cc:Agent>
      <dc:title>Matplotlib v3.5.1, https://matplotlib.org/</dc:title>
     </cc:Agent>
    </dc:creator>
   </cc:Work>
  </rdf:RDF>
 </metadata>
 <defs>
  <style type="text/css">*{stroke-linejoin: round; stroke-linecap: butt}</style>
 </defs>
 <g id="figure_1">
  <g id="patch_1">
   <path d="M 0 273.499652 
L 477.533125 273.499652 
L 477.533125 0 
L 0 0 
L 0 273.499652 
z
" style="fill: none"/>
  </g>
  <g id="axes_1">
   <g id="patch_2">
    <path d="M 51.833125 226.136527 
L 470.333125 226.136527 
L 470.333125 8.696527 
L 51.833125 8.696527 
z
" style="fill: #ffffff"/>
   </g>
   <g id="patch_3">
    <path d="M 70.855852 318.012584 
L 80.867814 318.012584 
L 80.867814 83.62701 
L 70.855852 83.62701 
z
" clip-path="url(#p77e7bb8ea5)" style="fill: #40e0d0; opacity: 0.6; stroke: #20b2aa; stroke-linejoin: miter"/>
   </g>
   <g id="patch_4">
    <path d="M 120.915661 318.012584 
L 130.927623 318.012584 
L 130.927623 77.156778 
L 120.915661 77.156778 
z
" clip-path="url(#p77e7bb8ea5)" style="fill: #40e0d0; opacity: 0.6; stroke: #20b2aa; stroke-linejoin: miter"/>
   </g>
   <g id="patch_5">
    <path d="M 170.975469 318.012584 
L 180.987431 318.012584 
L 180.987431 63.995451 
L 170.975469 63.995451 
z
" clip-path="url(#p77e7bb8ea5)" style="fill: #40e0d0; opacity: 0.6; stroke: #20b2aa; stroke-linejoin: miter"/>
   </g>
   <g id="patch_6">
    <path d="M 221.035278 318.012584 
L 231.04724 318.012584 
L 231.04724 62.058913 
L 221.035278 62.058913 
z
" clip-path="url(#p77e7bb8ea5)" style="fill: #40e0d0; opacity: 0.6; stroke: #20b2aa; stroke-linejoin: miter"/>
   </g>
   <g id="patch_7">
    <path d="M 271.095087 318.012584 
L 281.107048 318.012584 
L 281.107048 49.87385 
L 271.095087 49.87385 
z
" clip-path="url(#p77e7bb8ea5)" style="fill: #40e0d0; opacity: 0.6; stroke: #20b2aa; stroke-linejoin: miter"/>
   </g>
   <g id="patch_8">
    <path d="M 321.154895 318.012584 
L 331.166857 318.012584 
L 331.166857 52.877506 
L 321.154895 52.877506 
z
" clip-path="url(#p77e7bb8ea5)" style="fill: #40e0d0; opacity: 0.6; stroke: #20b2aa; stroke-linejoin: miter"/>
   </g>
   <g id="patch_9">
    <path d="M 371.214704 318.012584 
L 381.226666 318.012584 
L 381.226666 46.133365 
L 371.214704 46.133365 
z
" clip-path="url(#p77e7bb8ea5)" style="fill: #40e0d0; opacity: 0.6; stroke: #20b2aa; stroke-linejoin: miter"/>
   </g>
   <g id="patch_10">
    <path d="M 421.274513 318.012584 
L 431.286474 318.012584 
L 431.286474 37.126114 
L 421.274513 37.126114 
z
" clip-path="url(#p77e7bb8ea5)" style="fill: #40e0d0; opacity: 0.6; stroke: #20b2aa; stroke-linejoin: miter"/>
   </g>
   <g id="patch_11">
    <path d="M 80.867814 318.012584 
L 90.879776 318.012584 
L 90.879776 181.206834 
L 80.867814 181.206834 
z
" clip-path="url(#p77e7bb8ea5)" style="fill: #ffff00; opacity: 0.6; stroke: #b8860b; stroke-linejoin: miter"/>
   </g>
   <g id="patch_12">
    <path d="M 130.927623 318.012584 
L 140.939584 318.012584 
L 140.939584 127.536618 
L 130.927623 127.536618 
z
" clip-path="url(#p77e7bb8ea5)" style="fill: #ffff00; opacity: 0.6; stroke: #b8860b; stroke-linejoin: miter"/>
   </g>
   <g id="patch_13">
    <path d="M 180.987431 318.012584 
L 190.999393 318.012584 
L 190.999393 114.773157 
L 180.987431 114.773157 
z
" clip-path="url(#p77e7bb8ea5)" style="fill: #ffff00; opacity: 0.6; stroke: #b8860b; stroke-linejoin: miter"/>
   </g>
   <g id="patch_14">
    <path d="M 231.04724 318.012584 
L 241.059202 318.012584 
L 241.059202 109.18833 
L 231.04724 109.18833 
z
" clip-path="url(#p77e7bb8ea5)" style="fill: #ffff00; opacity: 0.6; stroke: #b8860b; stroke-linejoin: miter"/>
   </g>
   <g id="patch_15">
    <path d="M 281.107048 318.012584 
L 291.11901 318.012584 
L 291.11901 93.112936 
L 281.107048 93.112936 
z
" clip-path="url(#p77e7bb8ea5)" style="fill: #ffff00; opacity: 0.6; stroke: #b8860b; stroke-linejoin: miter"/>
   </g>
   <g id="patch_16">
    <path d="M 331.166857 318.012584 
L 341.178819 318.012584 
L 341.178819 89.40066 
L 331.166857 89.40066 
z
" clip-path="url(#p77e7bb8ea5)" style="fill: #ffff00; opacity: 0.6; stroke: #b8860b; stroke-linejoin: miter"/>
   </g>
   <g id="patch_17">
    <path d="M 381.226666 318.012584 
L 391.238627 318.012584 
L 391.238627 83.593248 
L 381.226666 83.593248 
z
" clip-path="url(#p77e7bb8ea5)" style="fill: #ffff00; opacity: 0.6; stroke: #b8860b; stroke-linejoin: miter"/>
   </g>
   <g id="patch_18">
    <path d="M 431.286474 318.012584 
L 441.298436 318.012584 
L 441.298436 69.618133 
L 431.286474 69.618133 
z
" clip-path="url(#p77e7bb8ea5)" style="fill: #ffff00; opacity: 0.6; stroke: #b8860b; stroke-linejoin: miter"/>
   </g>
   <g id="patch_19">
    <path d="M 90.879776 318.012584 
L 100.891737 318.012584 
L 100.891737 150.432863 
L 90.879776 150.432863 
z
" clip-path="url(#p77e7bb8ea5)" style="fill: #ba55d3; opacity: 0.6; stroke: #9932cc; stroke-linejoin: miter"/>
   </g>
   <g id="patch_20">
    <path d="M 140.939584 318.012584 
L 150.951546 318.012584 
L 150.951546 111.539322 
L 140.939584 111.539322 
z
" clip-path="url(#p77e7bb8ea5)" style="fill: #ba55d3; opacity: 0.6; stroke: #9932cc; stroke-linejoin: miter"/>
   </g>
   <g id="patch_21">
    <path d="M 190.999393 318.012584 
L 201.011355 318.012584 
L 201.011355 95.075047 
L 190.999393 95.075047 
z
" clip-path="url(#p77e7bb8ea5)" style="fill: #ba55d3; opacity: 0.6; stroke: #9932cc; stroke-linejoin: miter"/>
   </g>
   <g id="patch_22">
    <path d="M 241.059202 318.012584 
L 251.071163 318.012584 
L 251.071163 89.373265 
L 241.059202 89.373265 
z
" clip-path="url(#p77e7bb8ea5)" style="fill: #ba55d3; opacity: 0.6; stroke: #9932cc; stroke-linejoin: miter"/>
   </g>
   <g id="patch_23">
    <path d="M 291.11901 318.012584 
L 301.130972 318.012584 
L 301.130972 75.454184 
L 291.11901 75.454184 
z
" clip-path="url(#p77e7bb8ea5)" style="fill: #ba55d3; opacity: 0.6; stroke: #9932cc; stroke-linejoin: miter"/>
   </g>
   <g id="patch_24">
    <path d="M 341.178819 318.012584 
L 351.190781 318.012584 
L 351.190781 74.200281 
L 341.178819 74.200281 
z
" clip-path="url(#p77e7bb8ea5)" style="fill: #ba55d3; opacity: 0.6; stroke: #9932cc; stroke-linejoin: miter"/>
   </g>
   <g id="patch_25">
    <path d="M 391.238627 318.012584 
L 401.250589 318.012584 
L 401.250589 67.810415 
L 391.238627 67.810415 
z
" clip-path="url(#p77e7bb8ea5)" style="fill: #ba55d3; opacity: 0.6; stroke: #9932cc; stroke-linejoin: miter"/>
   </g>
   <g id="patch_26">
    <path d="M 441.298436 318.012584 
L 451.310398 318.012584 
L 451.310398 55.411979 
L 441.298436 55.411979 
z
" clip-path="url(#p77e7bb8ea5)" style="fill: #ba55d3; opacity: 0.6; stroke: #9932cc; stroke-linejoin: miter"/>
   </g>
   <g id="matplotlib.axis_1">
    <g id="xtick_1">
     <g id="line2d_1">
      <defs>
       <path id="me1a65b294d" d="M 0 0 
L 0 3.5 
" style="stroke: #000000; stroke-width: 0.8"/>
      </defs>
      <g>
       <use xlink:href="#me1a65b294d" x="85.873795" y="226.136527" style="stroke: #000000; stroke-width: 0.8"/>
      </g>
     </g>
     <g id="text_1">
      <!-- 3 × 10³ -->
      <g transform="translate(63.174107 242.254652)scale(0.12 -0.12)">
       <defs>
        <path id="DejaVuSans-33" d="M 2597 2516 
Q 3050 2419 3304 2112 
Q 3559 1806 3559 1356 
Q 3559 666 3084 287 
Q 2609 -91 1734 -91 
Q 1441 -91 1130 -33 
Q 819 25 488 141 
L 488 750 
Q 750 597 1062 519 
Q 1375 441 1716 441 
Q 2309 441 2620 675 
Q 2931 909 2931 1356 
Q 2931 1769 2642 2001 
Q 2353 2234 1838 2234 
L 1294 2234 
L 1294 2753 
L 1863 2753 
Q 2328 2753 2575 2939 
Q 2822 3125 2822 3475 
Q 2822 3834 2567 4026 
Q 2313 4219 1838 4219 
Q 1578 4219 1281 4162 
Q 984 4106 628 3988 
L 628 4550 
Q 988 4650 1302 4700 
Q 1616 4750 1894 4750 
Q 2613 4750 3031 4423 
Q 3450 4097 3450 3541 
Q 3450 3153 3228 2886 
Q 3006 2619 2597 2516 
z
" transform="scale(0.015625)"/>
        <path id="DejaVuSans-20" transform="scale(0.015625)"/>
        <path id="DejaVuSans-d7" d="M 4488 3438 
L 3059 2003 
L 4488 575 
L 4116 197 
L 2681 1631 
L 1247 197 
L 878 575 
L 2303 2003 
L 878 3438 
L 1247 3816 
L 2681 2381 
L 4116 3816 
L 4488 3438 
z
" transform="scale(0.015625)"/>
        <path id="DejaVuSans-31" d="M 794 531 
L 1825 531 
L 1825 4091 
L 703 3866 
L 703 4441 
L 1819 4666 
L 2450 4666 
L 2450 531 
L 3481 531 
L 3481 0 
L 794 0 
L 794 531 
z
" transform="scale(0.015625)"/>
        <path id="DejaVuSans-30" d="M 2034 4250 
Q 1547 4250 1301 3770 
Q 1056 3291 1056 2328 
Q 1056 1369 1301 889 
Q 1547 409 2034 409 
Q 2525 409 2770 889 
Q 3016 1369 3016 2328 
Q 3016 3291 2770 3770 
Q 2525 4250 2034 4250 
z
M 2034 4750 
Q 2819 4750 3233 4129 
Q 3647 3509 3647 2328 
Q 3647 1150 3233 529 
Q 2819 -91 2034 -91 
Q 1250 -91 836 529 
Q 422 1150 422 2328 
Q 422 3509 836 4129 
Q 1250 4750 2034 4750 
z
" transform="scale(0.015625)"/>
        <path id="DejaVuSans-b3" d="M 1638 3500 
Q 1925 3444 2083 3273 
Q 2241 3103 2241 2847 
Q 2241 2459 1944 2250 
Q 1647 2041 1094 2041 
Q 916 2041 720 2073 
Q 525 2106 306 2169 
L 306 2547 
Q 469 2463 655 2422 
Q 841 2381 1050 2381 
Q 1391 2381 1578 2504 
Q 1766 2628 1766 2847 
Q 1766 3078 1592 3197 
Q 1419 3316 1081 3316 
L 813 3316 
L 813 3653 
L 1106 3653 
Q 1400 3653 1551 3751 
Q 1703 3850 1703 4038 
Q 1703 4219 1547 4314 
Q 1391 4409 1094 4409 
Q 969 4409 809 4381 
Q 650 4353 397 4281 
L 397 4641 
Q 625 4694 825 4722 
Q 1025 4750 1197 4750 
Q 1647 4750 1911 4565 
Q 2175 4381 2175 4072 
Q 2175 3856 2034 3706 
Q 1894 3556 1638 3500 
z
" transform="scale(0.015625)"/>
       </defs>
       <use xlink:href="#DejaVuSans-33"/>
       <use xlink:href="#DejaVuSans-20" x="63.623047"/>
       <use xlink:href="#DejaVuSans-d7" x="95.410156"/>
       <use xlink:href="#DejaVuSans-20" x="179.199219"/>
       <use xlink:href="#DejaVuSans-31" x="210.986328"/>
       <use xlink:href="#DejaVuSans-30" x="274.609375"/>
       <use xlink:href="#DejaVuSans-b3" x="338.232422"/>
      </g>
     </g>
    </g>
    <g id="xtick_2">
     <g id="line2d_2">
      <g>
       <use xlink:href="#me1a65b294d" x="135.933603" y="226.136527" style="stroke: #000000; stroke-width: 0.8"/>
      </g>
     </g>
     <g id="text_2">
      <!-- 4 × 10³ -->
      <g transform="translate(113.233916 242.254652)scale(0.12 -0.12)">
       <defs>
        <path id="DejaVuSans-34" d="M 2419 4116 
L 825 1625 
L 2419 1625 
L 2419 4116 
z
M 2253 4666 
L 3047 4666 
L 3047 1625 
L 3713 1625 
L 3713 1100 
L 3047 1100 
L 3047 0 
L 2419 0 
L 2419 1100 
L 313 1100 
L 313 1709 
L 2253 4666 
z
" transform="scale(0.015625)"/>
       </defs>
       <use xlink:href="#DejaVuSans-34"/>
       <use xlink:href="#DejaVuSans-20" x="63.623047"/>
       <use xlink:href="#DejaVuSans-d7" x="95.410156"/>
       <use xlink:href="#DejaVuSans-20" x="179.199219"/>
       <use xlink:href="#DejaVuSans-31" x="210.986328"/>
       <use xlink:href="#DejaVuSans-30" x="274.609375"/>
       <use xlink:href="#DejaVuSans-b3" x="338.232422"/>
      </g>
     </g>
    </g>
    <g id="xtick_3">
     <g id="line2d_3">
      <g>
       <use xlink:href="#me1a65b294d" x="185.993412" y="226.136527" style="stroke: #000000; stroke-width: 0.8"/>
      </g>
     </g>
     <g id="text_3">
      <!-- 5 × 10³ -->
      <g transform="translate(163.293725 242.254652)scale(0.12 -0.12)">
       <defs>
        <path id="DejaVuSans-35" d="M 691 4666 
L 3169 4666 
L 3169 4134 
L 1269 4134 
L 1269 2991 
Q 1406 3038 1543 3061 
Q 1681 3084 1819 3084 
Q 2600 3084 3056 2656 
Q 3513 2228 3513 1497 
Q 3513 744 3044 326 
Q 2575 -91 1722 -91 
Q 1428 -91 1123 -41 
Q 819 9 494 109 
L 494 744 
Q 775 591 1075 516 
Q 1375 441 1709 441 
Q 2250 441 2565 725 
Q 2881 1009 2881 1497 
Q 2881 1984 2565 2268 
Q 2250 2553 1709 2553 
Q 1456 2553 1204 2497 
Q 953 2441 691 2322 
L 691 4666 
z
" transform="scale(0.015625)"/>
       </defs>
       <use xlink:href="#DejaVuSans-35"/>
       <use xlink:href="#DejaVuSans-20" x="63.623047"/>
       <use xlink:href="#DejaVuSans-d7" x="95.410156"/>
       <use xlink:href="#DejaVuSans-20" x="179.199219"/>
       <use xlink:href="#DejaVuSans-31" x="210.986328"/>
       <use xlink:href="#DejaVuSans-30" x="274.609375"/>
       <use xlink:href="#DejaVuSans-b3" x="338.232422"/>
      </g>
     </g>
    </g>
    <g id="xtick_4">
     <g id="line2d_4">
      <g>
       <use xlink:href="#me1a65b294d" x="236.053221" y="226.136527" style="stroke: #000000; stroke-width: 0.8"/>
      </g>
     </g>
     <g id="text_4">
      <!-- 6 × 10³ -->
      <g transform="translate(213.353533 242.254652)scale(0.12 -0.12)">
       <defs>
        <path id="DejaVuSans-36" d="M 2113 2584 
Q 1688 2584 1439 2293 
Q 1191 2003 1191 1497 
Q 1191 994 1439 701 
Q 1688 409 2113 409 
Q 2538 409 2786 701 
Q 3034 994 3034 1497 
Q 3034 2003 2786 2293 
Q 2538 2584 2113 2584 
z
M 3366 4563 
L 3366 3988 
Q 3128 4100 2886 4159 
Q 2644 4219 2406 4219 
Q 1781 4219 1451 3797 
Q 1122 3375 1075 2522 
Q 1259 2794 1537 2939 
Q 1816 3084 2150 3084 
Q 2853 3084 3261 2657 
Q 3669 2231 3669 1497 
Q 3669 778 3244 343 
Q 2819 -91 2113 -91 
Q 1303 -91 875 529 
Q 447 1150 447 2328 
Q 447 3434 972 4092 
Q 1497 4750 2381 4750 
Q 2619 4750 2861 4703 
Q 3103 4656 3366 4563 
z
" transform="scale(0.015625)"/>
       </defs>
       <use xlink:href="#DejaVuSans-36"/>
       <use xlink:href="#DejaVuSans-20" x="63.623047"/>
       <use xlink:href="#DejaVuSans-d7" x="95.410156"/>
       <use xlink:href="#DejaVuSans-20" x="179.199219"/>
       <use xlink:href="#DejaVuSans-31" x="210.986328"/>
       <use xlink:href="#DejaVuSans-30" x="274.609375"/>
       <use xlink:href="#DejaVuSans-b3" x="338.232422"/>
      </g>
     </g>
    </g>
    <g id="xtick_5">
     <g id="line2d_5">
      <g>
       <use xlink:href="#me1a65b294d" x="286.113029" y="226.136527" style="stroke: #000000; stroke-width: 0.8"/>
      </g>
     </g>
     <g id="text_5">
      <!-- 7 × 10³ -->
      <g transform="translate(263.413342 242.254652)scale(0.12 -0.12)">
       <defs>
        <path id="DejaVuSans-37" d="M 525 4666 
L 3525 4666 
L 3525 4397 
L 1831 0 
L 1172 0 
L 2766 4134 
L 525 4134 
L 525 4666 
z
" transform="scale(0.015625)"/>
       </defs>
       <use xlink:href="#DejaVuSans-37"/>
       <use xlink:href="#DejaVuSans-20" x="63.623047"/>
       <use xlink:href="#DejaVuSans-d7" x="95.410156"/>
       <use xlink:href="#DejaVuSans-20" x="179.199219"/>
       <use xlink:href="#DejaVuSans-31" x="210.986328"/>
       <use xlink:href="#DejaVuSans-30" x="274.609375"/>
       <use xlink:href="#DejaVuSans-b3" x="338.232422"/>
      </g>
     </g>
    </g>
    <g id="xtick_6">
     <g id="line2d_6">
      <g>
       <use xlink:href="#me1a65b294d" x="336.172838" y="226.136527" style="stroke: #000000; stroke-width: 0.8"/>
      </g>
     </g>
     <g id="text_6">
      <!-- 8 × 10³ -->
      <g transform="translate(313.47315 242.254652)scale(0.12 -0.12)">
       <defs>
        <path id="DejaVuSans-38" d="M 2034 2216 
Q 1584 2216 1326 1975 
Q 1069 1734 1069 1313 
Q 1069 891 1326 650 
Q 1584 409 2034 409 
Q 2484 409 2743 651 
Q 3003 894 3003 1313 
Q 3003 1734 2745 1975 
Q 2488 2216 2034 2216 
z
M 1403 2484 
Q 997 2584 770 2862 
Q 544 3141 544 3541 
Q 544 4100 942 4425 
Q 1341 4750 2034 4750 
Q 2731 4750 3128 4425 
Q 3525 4100 3525 3541 
Q 3525 3141 3298 2862 
Q 3072 2584 2669 2484 
Q 3125 2378 3379 2068 
Q 3634 1759 3634 1313 
Q 3634 634 3220 271 
Q 2806 -91 2034 -91 
Q 1263 -91 848 271 
Q 434 634 434 1313 
Q 434 1759 690 2068 
Q 947 2378 1403 2484 
z
M 1172 3481 
Q 1172 3119 1398 2916 
Q 1625 2713 2034 2713 
Q 2441 2713 2670 2916 
Q 2900 3119 2900 3481 
Q 2900 3844 2670 4047 
Q 2441 4250 2034 4250 
Q 1625 4250 1398 4047 
Q 1172 3844 1172 3481 
z
" transform="scale(0.015625)"/>
       </defs>
       <use xlink:href="#DejaVuSans-38"/>
       <use xlink:href="#DejaVuSans-20" x="63.623047"/>
       <use xlink:href="#DejaVuSans-d7" x="95.410156"/>
       <use xlink:href="#DejaVuSans-20" x="179.199219"/>
       <use xlink:href="#DejaVuSans-31" x="210.986328"/>
       <use xlink:href="#DejaVuSans-30" x="274.609375"/>
       <use xlink:href="#DejaVuSans-b3" x="338.232422"/>
      </g>
     </g>
    </g>
    <g id="xtick_7">
     <g id="line2d_7">
      <g>
       <use xlink:href="#me1a65b294d" x="386.232647" y="226.136527" style="stroke: #000000; stroke-width: 0.8"/>
      </g>
     </g>
     <g id="text_7">
      <!-- 9 × 10³ -->
      <g transform="translate(363.532959 242.254652)scale(0.12 -0.12)">
       <defs>
        <path id="DejaVuSans-39" d="M 703 97 
L 703 672 
Q 941 559 1184 500 
Q 1428 441 1663 441 
Q 2288 441 2617 861 
Q 2947 1281 2994 2138 
Q 2813 1869 2534 1725 
Q 2256 1581 1919 1581 
Q 1219 1581 811 2004 
Q 403 2428 403 3163 
Q 403 3881 828 4315 
Q 1253 4750 1959 4750 
Q 2769 4750 3195 4129 
Q 3622 3509 3622 2328 
Q 3622 1225 3098 567 
Q 2575 -91 1691 -91 
Q 1453 -91 1209 -44 
Q 966 3 703 97 
z
M 1959 2075 
Q 2384 2075 2632 2365 
Q 2881 2656 2881 3163 
Q 2881 3666 2632 3958 
Q 2384 4250 1959 4250 
Q 1534 4250 1286 3958 
Q 1038 3666 1038 3163 
Q 1038 2656 1286 2365 
Q 1534 2075 1959 2075 
z
" transform="scale(0.015625)"/>
       </defs>
       <use xlink:href="#DejaVuSans-39"/>
       <use xlink:href="#DejaVuSans-20" x="63.623047"/>
       <use xlink:href="#DejaVuSans-d7" x="95.410156"/>
       <use xlink:href="#DejaVuSans-20" x="179.199219"/>
       <use xlink:href="#DejaVuSans-31" x="210.986328"/>
       <use xlink:href="#DejaVuSans-30" x="274.609375"/>
       <use xlink:href="#DejaVuSans-b3" x="338.232422"/>
      </g>
     </g>
    </g>
    <g id="xtick_8">
     <g id="line2d_8">
      <g>
       <use xlink:href="#me1a65b294d" x="436.292455" y="226.136527" style="stroke: #000000; stroke-width: 0.8"/>
      </g>
     </g>
     <g id="text_8">
      <!-- 10⁴ -->
      <g transform="translate(426.25183 242.254652)scale(0.12 -0.12)">
       <defs>
        <path id="DejaVuSans-2074" d="M 1491 4319 
L 525 3009 
L 1491 3009 
L 1491 4319 
z
M 1422 4697 
L 1941 4697 
L 1941 3009 
L 2363 3009 
L 2363 2669 
L 1941 2669 
L 1941 2088 
L 1491 2088 
L 1491 2669 
L 197 2669 
L 197 3047 
L 1422 4697 
z
" transform="scale(0.015625)"/>
       </defs>
       <use xlink:href="#DejaVuSans-31"/>
       <use xlink:href="#DejaVuSans-30" x="63.623047"/>
       <use xlink:href="#DejaVuSans-2074" x="127.246094"/>
      </g>
     </g>
    </g>
    <g id="text_9">
     <!-- Sample Size -->
     <g transform="translate(218.240938 263.38809)scale(0.14 -0.14)">
      <defs>
       <path id="DejaVuSans-53" d="M 3425 4513 
L 3425 3897 
Q 3066 4069 2747 4153 
Q 2428 4238 2131 4238 
Q 1616 4238 1336 4038 
Q 1056 3838 1056 3469 
Q 1056 3159 1242 3001 
Q 1428 2844 1947 2747 
L 2328 2669 
Q 3034 2534 3370 2195 
Q 3706 1856 3706 1288 
Q 3706 609 3251 259 
Q 2797 -91 1919 -91 
Q 1588 -91 1214 -16 
Q 841 59 441 206 
L 441 856 
Q 825 641 1194 531 
Q 1563 422 1919 422 
Q 2459 422 2753 634 
Q 3047 847 3047 1241 
Q 3047 1584 2836 1778 
Q 2625 1972 2144 2069 
L 1759 2144 
Q 1053 2284 737 2584 
Q 422 2884 422 3419 
Q 422 4038 858 4394 
Q 1294 4750 2059 4750 
Q 2388 4750 2728 4690 
Q 3069 4631 3425 4513 
z
" transform="scale(0.015625)"/>
       <path id="DejaVuSans-61" d="M 2194 1759 
Q 1497 1759 1228 1600 
Q 959 1441 959 1056 
Q 959 750 1161 570 
Q 1363 391 1709 391 
Q 2188 391 2477 730 
Q 2766 1069 2766 1631 
L 2766 1759 
L 2194 1759 
z
M 3341 1997 
L 3341 0 
L 2766 0 
L 2766 531 
Q 2569 213 2275 61 
Q 1981 -91 1556 -91 
Q 1019 -91 701 211 
Q 384 513 384 1019 
Q 384 1609 779 1909 
Q 1175 2209 1959 2209 
L 2766 2209 
L 2766 2266 
Q 2766 2663 2505 2880 
Q 2244 3097 1772 3097 
Q 1472 3097 1187 3025 
Q 903 2953 641 2809 
L 641 3341 
Q 956 3463 1253 3523 
Q 1550 3584 1831 3584 
Q 2591 3584 2966 3190 
Q 3341 2797 3341 1997 
z
" transform="scale(0.015625)"/>
       <path id="DejaVuSans-6d" d="M 3328 2828 
Q 3544 3216 3844 3400 
Q 4144 3584 4550 3584 
Q 5097 3584 5394 3201 
Q 5691 2819 5691 2113 
L 5691 0 
L 5113 0 
L 5113 2094 
Q 5113 2597 4934 2840 
Q 4756 3084 4391 3084 
Q 3944 3084 3684 2787 
Q 3425 2491 3425 1978 
L 3425 0 
L 2847 0 
L 2847 2094 
Q 2847 2600 2669 2842 
Q 2491 3084 2119 3084 
Q 1678 3084 1418 2786 
Q 1159 2488 1159 1978 
L 1159 0 
L 581 0 
L 581 3500 
L 1159 3500 
L 1159 2956 
Q 1356 3278 1631 3431 
Q 1906 3584 2284 3584 
Q 2666 3584 2933 3390 
Q 3200 3197 3328 2828 
z
" transform="scale(0.015625)"/>
       <path id="DejaVuSans-70" d="M 1159 525 
L 1159 -1331 
L 581 -1331 
L 581 3500 
L 1159 3500 
L 1159 2969 
Q 1341 3281 1617 3432 
Q 1894 3584 2278 3584 
Q 2916 3584 3314 3078 
Q 3713 2572 3713 1747 
Q 3713 922 3314 415 
Q 2916 -91 2278 -91 
Q 1894 -91 1617 61 
Q 1341 213 1159 525 
z
M 3116 1747 
Q 3116 2381 2855 2742 
Q 2594 3103 2138 3103 
Q 1681 3103 1420 2742 
Q 1159 2381 1159 1747 
Q 1159 1113 1420 752 
Q 1681 391 2138 391 
Q 2594 391 2855 752 
Q 3116 1113 3116 1747 
z
" transform="scale(0.015625)"/>
       <path id="DejaVuSans-6c" d="M 603 4863 
L 1178 4863 
L 1178 0 
L 603 0 
L 603 4863 
z
" transform="scale(0.015625)"/>
       <path id="DejaVuSans-65" d="M 3597 1894 
L 3597 1613 
L 953 1613 
Q 991 1019 1311 708 
Q 1631 397 2203 397 
Q 2534 397 2845 478 
Q 3156 559 3463 722 
L 3463 178 
Q 3153 47 2828 -22 
Q 2503 -91 2169 -91 
Q 1331 -91 842 396 
Q 353 884 353 1716 
Q 353 2575 817 3079 
Q 1281 3584 2069 3584 
Q 2775 3584 3186 3129 
Q 3597 2675 3597 1894 
z
M 3022 2063 
Q 3016 2534 2758 2815 
Q 2500 3097 2075 3097 
Q 1594 3097 1305 2825 
Q 1016 2553 972 2059 
L 3022 2063 
z
" transform="scale(0.015625)"/>
       <path id="DejaVuSans-69" d="M 603 3500 
L 1178 3500 
L 1178 0 
L 603 0 
L 603 3500 
z
M 603 4863 
L 1178 4863 
L 1178 4134 
L 603 4134 
L 603 4863 
z
" transform="scale(0.015625)"/>
       <path id="DejaVuSans-7a" d="M 353 3500 
L 3084 3500 
L 3084 2975 
L 922 459 
L 3084 459 
L 3084 0 
L 275 0 
L 275 525 
L 2438 3041 
L 353 3041 
L 353 3500 
z
" transform="scale(0.015625)"/>
      </defs>
      <use xlink:href="#DejaVuSans-53"/>
      <use xlink:href="#DejaVuSans-61" x="63.476562"/>
      <use xlink:href="#DejaVuSans-6d" x="124.755859"/>
      <use xlink:href="#DejaVuSans-70" x="222.167969"/>
      <use xlink:href="#DejaVuSans-6c" x="285.644531"/>
      <use xlink:href="#DejaVuSans-65" x="313.427734"/>
      <use xlink:href="#DejaVuSans-20" x="374.951172"/>
      <use xlink:href="#DejaVuSans-53" x="406.738281"/>
      <use xlink:href="#DejaVuSans-69" x="470.214844"/>
      <use xlink:href="#DejaVuSans-7a" x="497.998047"/>
      <use xlink:href="#DejaVuSans-65" x="550.488281"/>
     </g>
    </g>
   </g>
   <g id="matplotlib.axis_2">
    <g id="ytick_1">
     <g id="line2d_9">
      <path d="M 51.833125 226.136527 
L 470.333125 226.136527 
" clip-path="url(#p77e7bb8ea5)" style="fill: none; stroke-dasharray: 2.96,1.28; stroke-dashoffset: 0; stroke: #b0b0b0; stroke-opacity: 0.7; stroke-width: 0.8"/>
     </g>
     <g id="line2d_10">
      <defs>
       <path id="m747e1039f3" d="M 0 0 
L -3.5 0 
" style="stroke: #000000; stroke-width: 0.8"/>
      </defs>
      <g>
       <use xlink:href="#m747e1039f3" x="51.833125" y="226.136527" style="stroke: #000000; stroke-width: 0.8"/>
      </g>
     </g>
     <g id="text_10">
      <!-- 0.3 -->
      <g transform="translate(25.749375 230.69559)scale(0.12 -0.12)">
       <defs>
        <path id="DejaVuSans-2e" d="M 684 794 
L 1344 794 
L 1344 0 
L 684 0 
L 684 794 
z
" transform="scale(0.015625)"/>
       </defs>
       <use xlink:href="#DejaVuSans-30"/>
       <use xlink:href="#DejaVuSans-2e" x="63.623047"/>
       <use xlink:href="#DejaVuSans-33" x="95.410156"/>
      </g>
     </g>
    </g>
    <g id="ytick_2">
     <g id="line2d_11">
      <path d="M 51.833125 195.511175 
L 470.333125 195.511175 
" clip-path="url(#p77e7bb8ea5)" style="fill: none; stroke-dasharray: 2.96,1.28; stroke-dashoffset: 0; stroke: #b0b0b0; stroke-opacity: 0.7; stroke-width: 0.8"/>
     </g>
     <g id="line2d_12">
      <g>
       <use xlink:href="#m747e1039f3" x="51.833125" y="195.511175" style="stroke: #000000; stroke-width: 0.8"/>
      </g>
     </g>
     <g id="text_11">
      <!-- 0.4 -->
      <g transform="translate(25.749375 200.070238)scale(0.12 -0.12)">
       <use xlink:href="#DejaVuSans-30"/>
       <use xlink:href="#DejaVuSans-2e" x="63.623047"/>
       <use xlink:href="#DejaVuSans-34" x="95.410156"/>
      </g>
     </g>
    </g>
    <g id="ytick_3">
     <g id="line2d_13">
      <path d="M 51.833125 164.885823 
L 470.333125 164.885823 
" clip-path="url(#p77e7bb8ea5)" style="fill: none; stroke-dasharray: 2.96,1.28; stroke-dashoffset: 0; stroke: #b0b0b0; stroke-opacity: 0.7; stroke-width: 0.8"/>
     </g>
     <g id="line2d_14">
      <g>
       <use xlink:href="#m747e1039f3" x="51.833125" y="164.885823" style="stroke: #000000; stroke-width: 0.8"/>
      </g>
     </g>
     <g id="text_12">
      <!-- 0.5 -->
      <g transform="translate(25.749375 169.444886)scale(0.12 -0.12)">
       <use xlink:href="#DejaVuSans-30"/>
       <use xlink:href="#DejaVuSans-2e" x="63.623047"/>
       <use xlink:href="#DejaVuSans-35" x="95.410156"/>
      </g>
     </g>
    </g>
    <g id="ytick_4">
     <g id="line2d_15">
      <path d="M 51.833125 134.260471 
L 470.333125 134.260471 
" clip-path="url(#p77e7bb8ea5)" style="fill: none; stroke-dasharray: 2.96,1.28; stroke-dashoffset: 0; stroke: #b0b0b0; stroke-opacity: 0.7; stroke-width: 0.8"/>
     </g>
     <g id="line2d_16">
      <g>
       <use xlink:href="#m747e1039f3" x="51.833125" y="134.260471" style="stroke: #000000; stroke-width: 0.8"/>
      </g>
     </g>
     <g id="text_13">
      <!-- 0.6 -->
      <g transform="translate(25.749375 138.819533)scale(0.12 -0.12)">
       <use xlink:href="#DejaVuSans-30"/>
       <use xlink:href="#DejaVuSans-2e" x="63.623047"/>
       <use xlink:href="#DejaVuSans-36" x="95.410156"/>
      </g>
     </g>
    </g>
    <g id="ytick_5">
     <g id="line2d_17">
      <path d="M 51.833125 103.635119 
L 470.333125 103.635119 
" clip-path="url(#p77e7bb8ea5)" style="fill: none; stroke-dasharray: 2.96,1.28; stroke-dashoffset: 0; stroke: #b0b0b0; stroke-opacity: 0.7; stroke-width: 0.8"/>
     </g>
     <g id="line2d_18">
      <g>
       <use xlink:href="#m747e1039f3" x="51.833125" y="103.635119" style="stroke: #000000; stroke-width: 0.8"/>
      </g>
     </g>
     <g id="text_14">
      <!-- 0.7 -->
      <g transform="translate(25.749375 108.194181)scale(0.12 -0.12)">
       <use xlink:href="#DejaVuSans-30"/>
       <use xlink:href="#DejaVuSans-2e" x="63.623047"/>
       <use xlink:href="#DejaVuSans-37" x="95.410156"/>
      </g>
     </g>
    </g>
    <g id="ytick_6">
     <g id="line2d_19">
      <path d="M 51.833125 73.009767 
L 470.333125 73.009767 
" clip-path="url(#p77e7bb8ea5)" style="fill: none; stroke-dasharray: 2.96,1.28; stroke-dashoffset: 0; stroke: #b0b0b0; stroke-opacity: 0.7; stroke-width: 0.8"/>
     </g>
     <g id="line2d_20">
      <g>
       <use xlink:href="#m747e1039f3" x="51.833125" y="73.009767" style="stroke: #000000; stroke-width: 0.8"/>
      </g>
     </g>
     <g id="text_15">
      <!-- 0.8 -->
      <g transform="translate(25.749375 77.568829)scale(0.12 -0.12)">
       <use xlink:href="#DejaVuSans-30"/>
       <use xlink:href="#DejaVuSans-2e" x="63.623047"/>
       <use xlink:href="#DejaVuSans-38" x="95.410156"/>
      </g>
     </g>
    </g>
    <g id="ytick_7">
     <g id="line2d_21">
      <path d="M 51.833125 42.384415 
L 470.333125 42.384415 
" clip-path="url(#p77e7bb8ea5)" style="fill: none; stroke-dasharray: 2.96,1.28; stroke-dashoffset: 0; stroke: #b0b0b0; stroke-opacity: 0.7; stroke-width: 0.8"/>
     </g>
     <g id="line2d_22">
      <g>
       <use xlink:href="#m747e1039f3" x="51.833125" y="42.384415" style="stroke: #000000; stroke-width: 0.8"/>
      </g>
     </g>
     <g id="text_16">
      <!-- 0.9 -->
      <g transform="translate(25.749375 46.943477)scale(0.12 -0.12)">
       <use xlink:href="#DejaVuSans-30"/>
       <use xlink:href="#DejaVuSans-2e" x="63.623047"/>
       <use xlink:href="#DejaVuSans-39" x="95.410156"/>
      </g>
     </g>
    </g>
    <g id="ytick_8">
     <g id="line2d_23">
      <path d="M 51.833125 11.759062 
L 470.333125 11.759062 
" clip-path="url(#p77e7bb8ea5)" style="fill: none; stroke-dasharray: 2.96,1.28; stroke-dashoffset: 0; stroke: #b0b0b0; stroke-opacity: 0.7; stroke-width: 0.8"/>
     </g>
     <g id="line2d_24">
      <g>
       <use xlink:href="#m747e1039f3" x="51.833125" y="11.759062" style="stroke: #000000; stroke-width: 0.8"/>
      </g>
     </g>
     <g id="text_17">
      <!-- 1.0 -->
      <g transform="translate(25.749375 16.318125)scale(0.12 -0.12)">
       <use xlink:href="#DejaVuSans-31"/>
       <use xlink:href="#DejaVuSans-2e" x="63.623047"/>
       <use xlink:href="#DejaVuSans-30" x="95.410156"/>
      </g>
     </g>
    </g>
    <g id="text_18">
     <!-- Score -->
     <g transform="translate(17.837813 137.019809)rotate(-90)scale(0.14 -0.14)">
      <defs>
       <path id="DejaVuSans-63" d="M 3122 3366 
L 3122 2828 
Q 2878 2963 2633 3030 
Q 2388 3097 2138 3097 
Q 1578 3097 1268 2742 
Q 959 2388 959 1747 
Q 959 1106 1268 751 
Q 1578 397 2138 397 
Q 2388 397 2633 464 
Q 2878 531 3122 666 
L 3122 134 
Q 2881 22 2623 -34 
Q 2366 -91 2075 -91 
Q 1284 -91 818 406 
Q 353 903 353 1747 
Q 353 2603 823 3093 
Q 1294 3584 2113 3584 
Q 2378 3584 2631 3529 
Q 2884 3475 3122 3366 
z
" transform="scale(0.015625)"/>
       <path id="DejaVuSans-6f" d="M 1959 3097 
Q 1497 3097 1228 2736 
Q 959 2375 959 1747 
Q 959 1119 1226 758 
Q 1494 397 1959 397 
Q 2419 397 2687 759 
Q 2956 1122 2956 1747 
Q 2956 2369 2687 2733 
Q 2419 3097 1959 3097 
z
M 1959 3584 
Q 2709 3584 3137 3096 
Q 3566 2609 3566 1747 
Q 3566 888 3137 398 
Q 2709 -91 1959 -91 
Q 1206 -91 779 398 
Q 353 888 353 1747 
Q 353 2609 779 3096 
Q 1206 3584 1959 3584 
z
" transform="scale(0.015625)"/>
       <path id="DejaVuSans-72" d="M 2631 2963 
Q 2534 3019 2420 3045 
Q 2306 3072 2169 3072 
Q 1681 3072 1420 2755 
Q 1159 2438 1159 1844 
L 1159 0 
L 581 0 
L 581 3500 
L 1159 3500 
L 1159 2956 
Q 1341 3275 1631 3429 
Q 1922 3584 2338 3584 
Q 2397 3584 2469 3576 
Q 2541 3569 2628 3553 
L 2631 2963 
z
" transform="scale(0.015625)"/>
      </defs>
      <use xlink:href="#DejaVuSans-53"/>
      <use xlink:href="#DejaVuSans-63" x="63.476562"/>
      <use xlink:href="#DejaVuSans-6f" x="118.457031"/>
      <use xlink:href="#DejaVuSans-72" x="179.638672"/>
      <use xlink:href="#DejaVuSans-65" x="218.501953"/>
     </g>
    </g>
   </g>
   <g id="LineCollection_1">
    <path d="M 75.861833 91.981319 
L 75.861833 75.272701 
" clip-path="url(#p77e7bb8ea5)" style="fill: none; stroke: #20b2aa; stroke-width: 1.5"/>
    <path d="M 125.921642 82.745555 
L 125.921642 71.568002 
" clip-path="url(#p77e7bb8ea5)" style="fill: none; stroke: #20b2aa; stroke-width: 1.5"/>
    <path d="M 175.98145 69.257195 
L 175.98145 58.733706 
" clip-path="url(#p77e7bb8ea5)" style="fill: none; stroke: #20b2aa; stroke-width: 1.5"/>
    <path d="M 226.041259 69.563038 
L 226.041259 54.554788 
" clip-path="url(#p77e7bb8ea5)" style="fill: none; stroke: #20b2aa; stroke-width: 1.5"/>
    <path d="M 276.101068 62.628496 
L 276.101068 37.119204 
" clip-path="url(#p77e7bb8ea5)" style="fill: none; stroke: #20b2aa; stroke-width: 1.5"/>
    <path d="M 326.160876 62.070723 
L 326.160876 43.684288 
" clip-path="url(#p77e7bb8ea5)" style="fill: none; stroke: #20b2aa; stroke-width: 1.5"/>
    <path d="M 376.220685 55.224667 
L 376.220685 37.042063 
" clip-path="url(#p77e7bb8ea5)" style="fill: none; stroke: #20b2aa; stroke-width: 1.5"/>
    <path d="M 426.280493 40.306537 
L 426.280493 33.945691 
" clip-path="url(#p77e7bb8ea5)" style="fill: none; stroke: #20b2aa; stroke-width: 1.5"/>
   </g>
   <g id="line2d_25">
    <defs>
     <path id="m4bd0f736be" d="M 4 0 
L -4 -0 
" style="stroke: #20b2aa; stroke-width: 1.5"/>
    </defs>
    <g clip-path="url(#p77e7bb8ea5)">
     <use xlink:href="#m4bd0f736be" x="75.861833" y="91.981319" style="fill: #20b2aa; stroke: #20b2aa; stroke-width: 1.5"/>
     <use xlink:href="#m4bd0f736be" x="125.921642" y="82.745555" style="fill: #20b2aa; stroke: #20b2aa; stroke-width: 1.5"/>
     <use xlink:href="#m4bd0f736be" x="175.98145" y="69.257195" style="fill: #20b2aa; stroke: #20b2aa; stroke-width: 1.5"/>
     <use xlink:href="#m4bd0f736be" x="226.041259" y="69.563038" style="fill: #20b2aa; stroke: #20b2aa; stroke-width: 1.5"/>
     <use xlink:href="#m4bd0f736be" x="276.101068" y="62.628496" style="fill: #20b2aa; stroke: #20b2aa; stroke-width: 1.5"/>
     <use xlink:href="#m4bd0f736be" x="326.160876" y="62.070723" style="fill: #20b2aa; stroke: #20b2aa; stroke-width: 1.5"/>
     <use xlink:href="#m4bd0f736be" x="376.220685" y="55.224667" style="fill: #20b2aa; stroke: #20b2aa; stroke-width: 1.5"/>
     <use xlink:href="#m4bd0f736be" x="426.280493" y="40.306537" style="fill: #20b2aa; stroke: #20b2aa; stroke-width: 1.5"/>
    </g>
   </g>
   <g id="line2d_26">
    <g clip-path="url(#p77e7bb8ea5)">
     <use xlink:href="#m4bd0f736be" x="75.861833" y="75.272701" style="fill: #20b2aa; stroke: #20b2aa; stroke-width: 1.5"/>
     <use xlink:href="#m4bd0f736be" x="125.921642" y="71.568002" style="fill: #20b2aa; stroke: #20b2aa; stroke-width: 1.5"/>
     <use xlink:href="#m4bd0f736be" x="175.98145" y="58.733706" style="fill: #20b2aa; stroke: #20b2aa; stroke-width: 1.5"/>
     <use xlink:href="#m4bd0f736be" x="226.041259" y="54.554788" style="fill: #20b2aa; stroke: #20b2aa; stroke-width: 1.5"/>
     <use xlink:href="#m4bd0f736be" x="276.101068" y="37.119204" style="fill: #20b2aa; stroke: #20b2aa; stroke-width: 1.5"/>
     <use xlink:href="#m4bd0f736be" x="326.160876" y="43.684288" style="fill: #20b2aa; stroke: #20b2aa; stroke-width: 1.5"/>
     <use xlink:href="#m4bd0f736be" x="376.220685" y="37.042063" style="fill: #20b2aa; stroke: #20b2aa; stroke-width: 1.5"/>
     <use xlink:href="#m4bd0f736be" x="426.280493" y="33.945691" style="fill: #20b2aa; stroke: #20b2aa; stroke-width: 1.5"/>
    </g>
   </g>
   <g id="LineCollection_2">
    <path d="M 85.873795 202.622101 
L 85.873795 159.791567 
" clip-path="url(#p77e7bb8ea5)" style="fill: none; stroke: #b8860b; stroke-width: 1.5"/>
    <path d="M 135.933603 149.515978 
L 135.933603 105.557257 
" clip-path="url(#p77e7bb8ea5)" style="fill: none; stroke: #b8860b; stroke-width: 1.5"/>
    <path d="M 185.993412 124.683484 
L 185.993412 104.862829 
" clip-path="url(#p77e7bb8ea5)" style="fill: none; stroke: #b8860b; stroke-width: 1.5"/>
    <path d="M 236.053221 128.403701 
L 236.053221 89.972959 
" clip-path="url(#p77e7bb8ea5)" style="fill: none; stroke: #b8860b; stroke-width: 1.5"/>
    <path d="M 286.113029 115.527194 
L 286.113029 70.698678 
" clip-path="url(#p77e7bb8ea5)" style="fill: none; stroke: #b8860b; stroke-width: 1.5"/>
    <path d="M 336.172838 99.972456 
L 336.172838 78.828865 
" clip-path="url(#p77e7bb8ea5)" style="fill: none; stroke: #b8860b; stroke-width: 1.5"/>
    <path d="M 386.232647 97.891718 
L 386.232647 69.294778 
" clip-path="url(#p77e7bb8ea5)" style="fill: none; stroke: #b8860b; stroke-width: 1.5"/>
    <path d="M 436.292455 87.151261 
L 436.292455 52.085006 
" clip-path="url(#p77e7bb8ea5)" style="fill: none; stroke: #b8860b; stroke-width: 1.5"/>
   </g>
   <g id="line2d_27">
    <defs>
     <path id="m4494aec5d0" d="M 4 0 
L -4 -0 
" style="stroke: #b8860b; stroke-width: 1.5"/>
    </defs>
    <g clip-path="url(#p77e7bb8ea5)">
     <use xlink:href="#m4494aec5d0" x="85.873795" y="202.622101" style="fill: #b8860b; stroke: #b8860b; stroke-width: 1.5"/>
     <use xlink:href="#m4494aec5d0" x="135.933603" y="149.515978" style="fill: #b8860b; stroke: #b8860b; stroke-width: 1.5"/>
     <use xlink:href="#m4494aec5d0" x="185.993412" y="124.683484" style="fill: #b8860b; stroke: #b8860b; stroke-width: 1.5"/>
     <use xlink:href="#m4494aec5d0" x="236.053221" y="128.403701" style="fill: #b8860b; stroke: #b8860b; stroke-width: 1.5"/>
     <use xlink:href="#m4494aec5d0" x="286.113029" y="115.527194" style="fill: #b8860b; stroke: #b8860b; stroke-width: 1.5"/>
     <use xlink:href="#m4494aec5d0" x="336.172838" y="99.972456" style="fill: #b8860b; stroke: #b8860b; stroke-width: 1.5"/>
     <use xlink:href="#m4494aec5d0" x="386.232647" y="97.891718" style="fill: #b8860b; stroke: #b8860b; stroke-width: 1.5"/>
     <use xlink:href="#m4494aec5d0" x="436.292455" y="87.151261" style="fill: #b8860b; stroke: #b8860b; stroke-width: 1.5"/>
    </g>
   </g>
   <g id="line2d_28">
    <g clip-path="url(#p77e7bb8ea5)">
     <use xlink:href="#m4494aec5d0" x="85.873795" y="159.791567" style="fill: #b8860b; stroke: #b8860b; stroke-width: 1.5"/>
     <use xlink:href="#m4494aec5d0" x="135.933603" y="105.557257" style="fill: #b8860b; stroke: #b8860b; stroke-width: 1.5"/>
     <use xlink:href="#m4494aec5d0" x="185.993412" y="104.862829" style="fill: #b8860b; stroke: #b8860b; stroke-width: 1.5"/>
     <use xlink:href="#m4494aec5d0" x="236.053221" y="89.972959" style="fill: #b8860b; stroke: #b8860b; stroke-width: 1.5"/>
     <use xlink:href="#m4494aec5d0" x="286.113029" y="70.698678" style="fill: #b8860b; stroke: #b8860b; stroke-width: 1.5"/>
     <use xlink:href="#m4494aec5d0" x="336.172838" y="78.828865" style="fill: #b8860b; stroke: #b8860b; stroke-width: 1.5"/>
     <use xlink:href="#m4494aec5d0" x="386.232647" y="69.294778" style="fill: #b8860b; stroke: #b8860b; stroke-width: 1.5"/>
     <use xlink:href="#m4494aec5d0" x="436.292455" y="52.085006" style="fill: #b8860b; stroke: #b8860b; stroke-width: 1.5"/>
    </g>
   </g>
   <g id="LineCollection_3">
    <path d="M 95.885757 170.061213 
L 95.885757 130.804512 
" clip-path="url(#p77e7bb8ea5)" style="fill: none; stroke: #9932cc; stroke-width: 1.5"/>
    <path d="M 145.945565 127.719167 
L 145.945565 95.359476 
" clip-path="url(#p77e7bb8ea5)" style="fill: none; stroke: #9932cc; stroke-width: 1.5"/>
    <path d="M 196.005374 103.099049 
L 196.005374 87.051046 
" clip-path="url(#p77e7bb8ea5)" style="fill: none; stroke: #9932cc; stroke-width: 1.5"/>
    <path d="M 246.065182 104.10908 
L 246.065182 74.637449 
" clip-path="url(#p77e7bb8ea5)" style="fill: none; stroke: #9932cc; stroke-width: 1.5"/>
    <path d="M 296.124991 94.524241 
L 296.124991 56.384127 
" clip-path="url(#p77e7bb8ea5)" style="fill: none; stroke: #9932cc; stroke-width: 1.5"/>
    <path d="M 346.1848 84.810888 
L 346.1848 63.589674 
" clip-path="url(#p77e7bb8ea5)" style="fill: none; stroke: #9932cc; stroke-width: 1.5"/>
    <path d="M 396.244608 78.709899 
L 396.244608 56.910931 
" clip-path="url(#p77e7bb8ea5)" style="fill: none; stroke: #9932cc; stroke-width: 1.5"/>
    <path d="M 446.304417 67.587288 
L 446.304417 43.236669 
" clip-path="url(#p77e7bb8ea5)" style="fill: none; stroke: #9932cc; stroke-width: 1.5"/>
   </g>
   <g id="line2d_29">
    <defs>
     <path id="m0034f4496f" d="M 4 0 
L -4 -0 
" style="stroke: #9932cc; stroke-width: 1.5"/>
    </defs>
    <g clip-path="url(#p77e7bb8ea5)">
     <use xlink:href="#m0034f4496f" x="95.885757" y="170.061213" style="fill: #9932cc; stroke: #9932cc; stroke-width: 1.5"/>
     <use xlink:href="#m0034f4496f" x="145.945565" y="127.719167" style="fill: #9932cc; stroke: #9932cc; stroke-width: 1.5"/>
     <use xlink:href="#m0034f4496f" x="196.005374" y="103.099049" style="fill: #9932cc; stroke: #9932cc; stroke-width: 1.5"/>
     <use xlink:href="#m0034f4496f" x="246.065182" y="104.10908" style="fill: #9932cc; stroke: #9932cc; stroke-width: 1.5"/>
     <use xlink:href="#m0034f4496f" x="296.124991" y="94.524241" style="fill: #9932cc; stroke: #9932cc; stroke-width: 1.5"/>
     <use xlink:href="#m0034f4496f" x="346.1848" y="84.810888" style="fill: #9932cc; stroke: #9932cc; stroke-width: 1.5"/>
     <use xlink:href="#m0034f4496f" x="396.244608" y="78.709899" style="fill: #9932cc; stroke: #9932cc; stroke-width: 1.5"/>
     <use xlink:href="#m0034f4496f" x="446.304417" y="67.587288" style="fill: #9932cc; stroke: #9932cc; stroke-width: 1.5"/>
    </g>
   </g>
   <g id="line2d_30">
    <g clip-path="url(#p77e7bb8ea5)">
     <use xlink:href="#m0034f4496f" x="95.885757" y="130.804512" style="fill: #9932cc; stroke: #9932cc; stroke-width: 1.5"/>
     <use xlink:href="#m0034f4496f" x="145.945565" y="95.359476" style="fill: #9932cc; stroke: #9932cc; stroke-width: 1.5"/>
     <use xlink:href="#m0034f4496f" x="196.005374" y="87.051046" style="fill: #9932cc; stroke: #9932cc; stroke-width: 1.5"/>
     <use xlink:href="#m0034f4496f" x="246.065182" y="74.637449" style="fill: #9932cc; stroke: #9932cc; stroke-width: 1.5"/>
     <use xlink:href="#m0034f4496f" x="296.124991" y="56.384127" style="fill: #9932cc; stroke: #9932cc; stroke-width: 1.5"/>
     <use xlink:href="#m0034f4496f" x="346.1848" y="63.589674" style="fill: #9932cc; stroke: #9932cc; stroke-width: 1.5"/>
     <use xlink:href="#m0034f4496f" x="396.244608" y="56.910931" style="fill: #9932cc; stroke: #9932cc; stroke-width: 1.5"/>
     <use xlink:href="#m0034f4496f" x="446.304417" y="43.236669" style="fill: #9932cc; stroke: #9932cc; stroke-width: 1.5"/>
    </g>
   </g>
   <g id="patch_27">
    <path d="M 51.833125 226.136527 
L 51.833125 8.696527 
" style="fill: none; stroke: #000000; stroke-width: 0.8; stroke-linejoin: miter; stroke-linecap: square"/>
   </g>
   <g id="patch_28">
    <path d="M 470.333125 226.136527 
L 470.333125 8.696527 
" style="fill: none; stroke: #000000; stroke-width: 0.8; stroke-linejoin: miter; stroke-linecap: square"/>
   </g>
   <g id="patch_29">
    <path d="M 51.833125 226.136527 
L 470.333125 226.136527 
" style="fill: none; stroke: #000000; stroke-width: 0.8; stroke-linejoin: miter; stroke-linecap: square"/>
   </g>
   <g id="patch_30">
    <path d="M 51.833125 8.696527 
L 470.333125 8.696527 
" style="fill: none; stroke: #000000; stroke-width: 0.8; stroke-linejoin: miter; stroke-linecap: square"/>
   </g>
   <g id="legend_1">
    <g id="patch_31">
     <path d="M 60.289063 60.230927 
L 136.903125 60.230927 
Q 138.903125 60.230927 138.903125 58.230927 
L 138.903125 15.196552 
Q 138.903125 13.196552 136.903125 13.196552 
L 60.289063 13.196552 
Q 58.289063 13.196552 58.289063 15.196552 
L 58.289063 58.230927 
Q 58.289063 60.230927 60.289063 60.230927 
z
" style="fill: #ffffff; opacity: 0.8; stroke: #cccccc; stroke-linejoin: miter"/>
    </g>
    <g id="patch_32">
     <path d="M 62.289063 24.79499 
L 82.289063 24.79499 
L 82.289063 17.79499 
L 62.289063 17.79499 
z
" style="fill: #40e0d0; opacity: 0.6; stroke: #20b2aa; stroke-linejoin: miter"/>
    </g>
    <g id="text_19">
     <!-- Precision -->
     <g transform="translate(90.289063 24.79499)scale(0.1 -0.1)">
      <defs>
       <path id="DejaVuSans-50" d="M 1259 4147 
L 1259 2394 
L 2053 2394 
Q 2494 2394 2734 2622 
Q 2975 2850 2975 3272 
Q 2975 3691 2734 3919 
Q 2494 4147 2053 4147 
L 1259 4147 
z
M 628 4666 
L 2053 4666 
Q 2838 4666 3239 4311 
Q 3641 3956 3641 3272 
Q 3641 2581 3239 2228 
Q 2838 1875 2053 1875 
L 1259 1875 
L 1259 0 
L 628 0 
L 628 4666 
z
" transform="scale(0.015625)"/>
       <path id="DejaVuSans-73" d="M 2834 3397 
L 2834 2853 
Q 2591 2978 2328 3040 
Q 2066 3103 1784 3103 
Q 1356 3103 1142 2972 
Q 928 2841 928 2578 
Q 928 2378 1081 2264 
Q 1234 2150 1697 2047 
L 1894 2003 
Q 2506 1872 2764 1633 
Q 3022 1394 3022 966 
Q 3022 478 2636 193 
Q 2250 -91 1575 -91 
Q 1294 -91 989 -36 
Q 684 19 347 128 
L 347 722 
Q 666 556 975 473 
Q 1284 391 1588 391 
Q 1994 391 2212 530 
Q 2431 669 2431 922 
Q 2431 1156 2273 1281 
Q 2116 1406 1581 1522 
L 1381 1569 
Q 847 1681 609 1914 
Q 372 2147 372 2553 
Q 372 3047 722 3315 
Q 1072 3584 1716 3584 
Q 2034 3584 2315 3537 
Q 2597 3491 2834 3397 
z
" transform="scale(0.015625)"/>
       <path id="DejaVuSans-6e" d="M 3513 2113 
L 3513 0 
L 2938 0 
L 2938 2094 
Q 2938 2591 2744 2837 
Q 2550 3084 2163 3084 
Q 1697 3084 1428 2787 
Q 1159 2491 1159 1978 
L 1159 0 
L 581 0 
L 581 3500 
L 1159 3500 
L 1159 2956 
Q 1366 3272 1645 3428 
Q 1925 3584 2291 3584 
Q 2894 3584 3203 3211 
Q 3513 2838 3513 2113 
z
" transform="scale(0.015625)"/>
      </defs>
      <use xlink:href="#DejaVuSans-50"/>
      <use xlink:href="#DejaVuSans-72" x="58.552734"/>
      <use xlink:href="#DejaVuSans-65" x="97.416016"/>
      <use xlink:href="#DejaVuSans-63" x="158.939453"/>
      <use xlink:href="#DejaVuSans-69" x="213.919922"/>
      <use xlink:href="#DejaVuSans-73" x="241.703125"/>
      <use xlink:href="#DejaVuSans-69" x="293.802734"/>
      <use xlink:href="#DejaVuSans-6f" x="321.585938"/>
      <use xlink:href="#DejaVuSans-6e" x="382.767578"/>
     </g>
    </g>
    <g id="patch_33">
     <path d="M 62.289063 39.473115 
L 82.289063 39.473115 
L 82.289063 32.473115 
L 62.289063 32.473115 
z
" style="fill: #ffff00; opacity: 0.6; stroke: #b8860b; stroke-linejoin: miter"/>
    </g>
    <g id="text_20">
     <!-- Recall -->
     <g transform="translate(90.289063 39.473115)scale(0.1 -0.1)">
      <defs>
       <path id="DejaVuSans-52" d="M 2841 2188 
Q 3044 2119 3236 1894 
Q 3428 1669 3622 1275 
L 4263 0 
L 3584 0 
L 2988 1197 
Q 2756 1666 2539 1819 
Q 2322 1972 1947 1972 
L 1259 1972 
L 1259 0 
L 628 0 
L 628 4666 
L 2053 4666 
Q 2853 4666 3247 4331 
Q 3641 3997 3641 3322 
Q 3641 2881 3436 2590 
Q 3231 2300 2841 2188 
z
M 1259 4147 
L 1259 2491 
L 2053 2491 
Q 2509 2491 2742 2702 
Q 2975 2913 2975 3322 
Q 2975 3731 2742 3939 
Q 2509 4147 2053 4147 
L 1259 4147 
z
" transform="scale(0.015625)"/>
      </defs>
      <use xlink:href="#DejaVuSans-52"/>
      <use xlink:href="#DejaVuSans-65" x="64.982422"/>
      <use xlink:href="#DejaVuSans-63" x="126.505859"/>
      <use xlink:href="#DejaVuSans-61" x="181.486328"/>
      <use xlink:href="#DejaVuSans-6c" x="242.765625"/>
      <use xlink:href="#DejaVuSans-6c" x="270.548828"/>
     </g>
    </g>
    <g id="patch_34">
     <path d="M 62.289063 54.15124 
L 82.289063 54.15124 
L 82.289063 47.15124 
L 62.289063 47.15124 
z
" style="fill: #ba55d3; opacity: 0.6; stroke: #9932cc; stroke-linejoin: miter"/>
    </g>
    <g id="text_21">
     <!-- F1-score -->
     <g transform="translate(90.289063 54.15124)scale(0.1 -0.1)">
      <defs>
       <path id="DejaVuSans-46" d="M 628 4666 
L 3309 4666 
L 3309 4134 
L 1259 4134 
L 1259 2759 
L 3109 2759 
L 3109 2228 
L 1259 2228 
L 1259 0 
L 628 0 
L 628 4666 
z
" transform="scale(0.015625)"/>
       <path id="DejaVuSans-2d" d="M 313 2009 
L 1997 2009 
L 1997 1497 
L 313 1497 
L 313 2009 
z
" transform="scale(0.015625)"/>
      </defs>
      <use xlink:href="#DejaVuSans-46"/>
      <use xlink:href="#DejaVuSans-31" x="57.519531"/>
      <use xlink:href="#DejaVuSans-2d" x="121.142578"/>
      <use xlink:href="#DejaVuSans-73" x="157.226562"/>
      <use xlink:href="#DejaVuSans-63" x="209.326172"/>
      <use xlink:href="#DejaVuSans-6f" x="264.306641"/>
      <use xlink:href="#DejaVuSans-72" x="325.488281"/>
      <use xlink:href="#DejaVuSans-65" x="364.351562"/>
     </g>
    </g>
   </g>
  </g>
 </g>
 <defs>
  <clipPath id="p77e7bb8ea5">
   <rect x="51.833125" y="8.696527" width="418.5" height="217.44"/>
  </clipPath>
 </defs>
</svg>
